# xmcd
#
# Track frame offsets:
#	150
#	13703
#	30609
#	41174
#	64128
#	81761
#	105192
#	118212
#	131793
#	158826
#	168435
#	184867
#	194257
#	208315
#
# Disc length: 3035 seconds
#
# Revision: 0
# Processed by: cddbd v1.5.2PL0 Copyright (c) Steve Scherf et al.
# Submitted via: EasyCDDAExtractor 16.0.1.1
#
DISCID=c30bd90e
DTITLE=Rory Block - Last Fair Deal
DYEAR=2003
DGENRE=Blues
TTITLE0=Gone Again
TTITLE1=Sookie Sookie
TTITLE2=Country Farm Blues
TTITLE3=Last Fair Deal Gone Down
TTITLE4=Declare
TTITLE5=Cry Out Loud
TTITLE6=Amazing Grace
TTITLE7=Traveling Riverside Blues
TTITLE8=Mama's Stray Baby
TTITLE9=Hallelu, Hallelu
TTITLE10=Two Places At A Table
TTITLE11=Awesome Love
TTITLE12=Look What The Lord Has Done
TTITLE13=Old Friends
EXTD=
EXTT0=
EXTT1=
EXTT2=
EXTT3=
EXTT4=
EXTT5=
EXTT6=
EXTT7=
EXTT8=
EXTT9=
EXTT10=
EXTT11=
EXTT12=
EXTT13=
PLAYORDER=
